Coordinates
version=1
nRows=16
nColumns=36
inDegrees=yes

Units are S.I. units (second, meters, Newtons, ...)
If the header above contains a line with 'inDegrees', this indicates whether rotational values are in degrees (yes) or radians (no).

endheader
time	pelvis_tilt	pelvis_list	pelvis_rotation	pelvis_tx	pelvis_ty	pelvis_tz	hip_flexion_r	hip_adduction_r	hip_rotation_r	knee_angle_r	knee_angle_r_beta	ankle_angle_r	subtalar_angle_r	mtp_angle_r	hip_flexion_l	hip_adduction_l	hip_rotation_l	knee_angle_l	knee_angle_l_beta	ankle_angle_l	subtalar_angle_l	mtp_angle_l	lumbar_extension	lumbar_bending	lumbar_rotation	arm_flex_r	arm_add_r	arm_rot_r	elbow_flex_r	pro_sup_r	arm_flex_l	arm_add_l	arm_rot_l	elbow_flex_l	pro_sup_l
      1.81000000	    -21.53914461	     -1.46728297	      0.38322381	     -0.29448414	      0.71346034	     -0.55447191	     72.09502566	     -1.36942028	      5.67073060	     81.24058519	      1.41791570	     24.26586744	    -24.77223360	     -7.49253689	     73.65609580	     -8.68954104	      8.10295652	     79.17934541	      1.38194028	     23.86082475	    -14.07574780	     -7.49253689	    -15.40478813	      2.52866875	     -2.19244037	     85.17678756	    -23.31177054	     12.55460994	     49.34015036	     99.66976640	     83.24691760	    -18.11281124	      1.66537546	     40.27174078	     94.19471177
      1.82000000	    -21.15892474	     -1.26935679	      0.44705900	     -0.28970750	      0.72297139	     -0.55335768	     70.30044494	     -1.19340404	      5.94545818	     79.52762827	      1.38801896	     23.52457837	    -25.53521326	     -7.49284280	     71.65011327	     -8.40678590	      7.97403761	     77.28875579	      1.34894326	     23.18563778	    -15.04202330	     -7.49284280	    -14.64013131	      2.44306171	     -2.40972878	     92.66956248	    -23.46987613	     17.78598888	     50.15887642	     99.96713347	     88.71735534	    -19.76954389	      6.80336283	     42.54767507	     94.40323103
      1.83000000	    -20.73100730	     -0.98590646	      0.49860114	     -0.28417901	      0.73320228	     -0.55243844	     68.35315021	     -1.16585605	      6.13923077	     77.61233714	      1.35459082	     22.32063528	    -26.66944768	     -7.49315976	     69.44867449	     -8.06300714	      7.76137183	     75.24611226	      1.31329241	     22.23861411	    -16.17467058	     -7.49315976	    -13.85403777	      2.28297857	     -2.47877653	    100.33424947	    -23.24415743	     22.84576476	     50.17370644	     99.96405671	     94.58451416	    -21.00728357	     11.63569662	     43.92549767	     94.09778404
      1.84000000	    -20.30057490	     -0.59625373	      0.49291621	     -0.27791116	      0.74438634	     -0.55159940	     66.27500219	     -1.24306404	      6.40015608	     75.48193973	      1.31740837	     21.16366680	    -27.58092171	     -7.49347274	     67.03486755	     -7.70252028	      7.40429933	     72.95203544	      1.27325321	     21.23611564	    -17.29007826	     -7.49347274	    -13.09293442	      2.00647079	     -2.25372222	    108.00592685	    -23.24068255	     28.44616227	     50.29927348	     99.67920699	    100.57519967	    -21.56248783	     15.49626155	     44.80585286	     93.47652421
      1.85000000	    -19.81349978	     -0.16145943	      0.40110184	     -0.27083173	      0.75655863	     -0.55060812	     63.98378788	     -1.34980029	      6.73897490	     73.20416161	      1.27765365	     20.18264621	    -28.01836030	     -7.49373950	     64.38830951	     -7.47609006	      6.86955594	     70.41179908	      1.22891773	     20.20562972	    -18.20523214	     -7.49373950	    -12.41937650	      1.70468423	     -1.82927574	    115.68094405	    -23.13820107	     34.28220687	     50.40196079	     99.14688976	    106.54997380	    -21.89484762	     18.97288833	     45.40469899	     92.87821839
      1.86000000	    -19.38002351	      0.31787389	      0.12175992	     -0.26314084	      0.76964487	     -0.54932997	     61.64855461	     -1.45912905	      7.02957934	     70.69759434	      1.23390579	     19.15774478	    -28.12181980	     -7.49403842	     61.59028575	     -7.34348577	      6.30064263	     67.61702901	      1.18013979	     18.88993336	    -18.97395806	     -7.49403842	    -11.64438562	      1.30078818	     -1.20044876	    122.90038538	    -22.43925207	     39.35637718	     50.00082581	     98.03023475	    112.48999272	    -22.21049704	     22.71809187	     45.54098893	     92.11767622
      1.87000000	    -19.00116860	      0.83348532	     -0.22215589	     -0.25479346	      0.78379088	     -0.54783856	     59.18598555	     -1.64042121	      7.26977859	     67.84188969	      1.18406435	     18.07419366	    -28.06339632	     -7.49617552	     58.63188279	     -7.25274487	      5.55853120	     64.42471861	      1.12442346	     17.33483063	    -19.75273681	     -7.49617552	    -10.71079423	      0.70885814	     -0.49505894	    129.34324877	    -21.44273701	     43.80580635	     49.81621455	     88.81571310	    118.35226911	    -22.22449372	     26.86557562	     45.68391106	     85.97306391
      1.88000000	    -18.60330290	      1.40956829	     -0.66874349	     -0.24571542	      0.79922295	     -0.54627591	     56.50324287	     -1.96997580	      7.24931294	     64.52550852	      1.12618258	     17.01396073	    -27.82572170	     -7.49628998	     55.40497039	     -7.20393726	      4.56076081	     60.82670594	      1.06162629	     15.89377313	    -20.06199122	     -7.49628998	     -9.64528435	     -0.10515541	      0.21659189	    134.66741334	    -20.15867274	     46.18461910	     48.55593697	     88.72679146	    123.84530683	    -21.59668406	     29.28750607	     44.43118793	     85.89578898
      1.89000000	    -18.32526650	      1.96370337	     -1.16277072	     -0.23634396	      0.81577761	     -0.54464892	     53.70557492	     -2.32360586	      7.13381968	     60.58323343	      1.05737689	     14.85712700	    -28.14741692	     -7.49623016	     52.08120480	     -7.14244869	      3.64781315	     56.69334269	      0.98948549	     13.42647186	    -20.61347378	     -7.49623016	     -8.36679353	     -0.95450930	      0.99166978	    139.72483009	    -19.14576367	     49.76177374	     46.54470254	     89.19831389	    129.35793497	    -20.83697901	     33.01304404	     41.70202645	     86.55031011
      1.90000000	    -17.89346436	      2.58573779	     -1.62798771	     -0.22642926	      0.83386906	     -0.54289963	     50.54936720	     -2.90276539	      6.84929487	     56.21405798	      0.98112040	     12.71853290	    -27.94713339	     -7.49629635	     48.34296091	     -7.03328863	      2.50288737	     52.02871017	      0.90807230	     10.71063594	    -20.44972580	     -7.49629635	     -7.17739659	     -1.85723362	      1.48230527	    143.92562758	    -17.83361197	     52.85299277	     44.18835062	     88.48988945	    134.53390607	    -20.19838954	     37.47882026	     38.71754864	     87.12052221
      1.91000000	    -17.31860837	      3.26598532	     -2.02524971	     -0.21599623	      0.85356059	     -0.54094811	     47.01683940	     -3.71236930	      6.43849045	     51.41333392	      0.89733196	     10.29833050	    -27.07955753	     -7.49739753	     44.22995234	     -6.86376037	      1.04257051	     46.80705744	      0.81693727	      7.50114527	    -19.61401903	     -7.49739753	     -6.05175990	     -2.83844302	      1.74578463	    147.42342499	    -16.38048301	     56.26113420	     41.90333715	     81.78476612	    139.40083722	    -19.43118059	     43.15195296	     35.29600562	     86.53513960
      1.92000000	    -16.51575316	      3.86795961	     -2.33515603	     -0.20498565	      0.87503702	     -0.53898727	     42.91350376	     -4.63943674	      5.72977038	     45.96775524	      0.80228868	      7.22414213	    -25.83257069	     -7.49736037	     39.72508240	     -6.73268412	     -0.77088007	     41.10126113	      0.71735233	      3.53914739	    -17.88310430	     -7.49736037	     -5.14735527	     -3.69240923	      2.12588089	    150.73995710	    -15.18781623	     60.64739181	     39.10758836	     82.64357802	    143.51569467	    -18.42731026	     48.76599685	     31.62581339	     87.82421796
      1.93000000	    -15.41165906	      4.34835291	     -2.52235699	     -0.19364620	      0.89820556	     -0.53705956	     38.16056362	     -5.63913955	      4.53743123	     39.84302157	      0.69539191	      3.79057900	    -23.62861037	     -7.49766958	     34.81479084	     -6.62392195	     -2.81737647	     34.97287484	      0.61039181	     -1.21653695	    -14.73620290	     -7.49766958	     -4.59241413	     -4.42764361	      2.05471048	    153.28927363	    -14.16092968	     64.08122291	     36.82638655	     82.36374458	    147.61907638	    -17.78057323	     56.90577093	     27.77624656	     87.74424699
      1.94000000	    -14.19956063	      4.64567878	     -2.52386251	     -0.18225879	      0.92261517	     -0.53549621	     32.99227859	     -6.60362100	      2.73292727	     33.04005552	      0.57665775	     -1.02794305	    -21.08959806	     -7.49761919	     29.76278420	     -6.46756993	     -4.72987378	     28.38587167	      0.49542692	     -7.52377198	    -10.82203303	     -7.49761919	     -4.13612175	     -4.79890169	      2.04761391	    155.72292994	    -13.47977011	     68.83087442	     34.61743105	     83.11123665	    150.65202637	    -17.37738278	     64.18669995	     24.32335832	     88.82025448
      1.95000000	    -13.02362598	      4.96522267	     -2.32162283	     -0.17100803	      0.94761886	     -0.53420805	     27.75394392	     -7.65055376	      0.26739107	     25.88879138	      0.45184465	     -6.64548667	    -17.14873364	     -7.49794638	     24.77129025	     -6.12126621	     -6.59521454	     21.22152012	      0.37038540	    -15.21600868	     -5.87934606	     -7.49794638	     -3.61253785	     -5.18714707	      1.34388206	    156.98559286	    -13.02888973	     71.59234796	     33.38710739	     81.08199751	    153.64852611	    -17.30861347	     74.58694558	     21.12437990	     86.01962161
      1.96000000	    -12.18843246	      5.28974117	     -2.00567915	     -0.16011350	      0.97262879	     -0.53321198	     22.90638198	     -8.53982763	     -2.62971811	     18.38738416	      0.32092039	    -14.80764387	    -12.88069248	     -7.49767711	     20.21871345	     -5.67353227	     -8.45341223	     13.40847117	      0.23402197	    -24.44533145	     -0.56616705	     -7.49767711	     -2.60450202	     -5.43017698	      1.07176655	    157.95869709	    -12.83299542	     74.83600153	     31.90096363	     82.90589468	    154.62185792	    -17.33006559	     77.66519792	     18.89205021	     88.38707262
